<svg width="127" height="26" viewBox="0 0 127 26" fill="none" xmlns="http://www.w3.org/2000/svg">
<g clip-path="url(#clip0_876_1930)">
<mask id="mask0_876_1930" style="mask-type:luminance" maskUnits="userSpaceOnUse" x="0" y="0" width="127" height="26">
<path d="M126.488 0H0.488281V25.8601H126.488V0Z" fill="white"/>
</mask>
<g mask="url(#mask0_876_1930)">
<path d="M90.3049 11.09C90.1915 10.3284 89.9842 9.58265 89.6879 8.86847C89.0258 7.28675 87.7715 6.3884 86.0035 6.21947C83.8581 6.01472 81.7908 6.83502 81.2268 9.37522C81.1989 9.50318 81.1418 9.61452 81.0546 9.85383C80.905 8.71618 80.7738 7.7129 80.64 6.69424H76.9902C77.1386 7.2394 77.3372 7.73848 77.4021 8.25292C77.5255 9.14745 77.5949 10.0482 77.61 10.9505C77.6311 14.8997 77.6245 18.8501 77.6192 22.8006C77.6164 23.3084 77.5823 23.8156 77.5172 24.3197C77.4506 24.6963 77.3644 25.0697 77.259 25.4381H81.8121C80.8652 23.0438 81.2293 20.6328 81.1895 18.241C81.489 18.5085 81.7193 18.8053 81.9749 19.0754C83.4914 20.6673 86.1227 20.9848 87.949 19.7971C88.97 19.1342 89.5383 18.1616 89.8997 17.0624C90.5382 15.107 90.6044 13.1004 90.3049 11.09ZM86.1584 16.3291C86.0169 16.7771 85.8081 17.2027 85.5386 17.5922C84.8235 18.5776 83.5046 18.7119 82.5855 17.898C82.2786 17.6121 82.0238 17.278 81.8319 16.9101C81.4241 16.1704 81.2849 15.3501 81.2029 14.5234C81.0876 13.3576 81.085 12.1919 81.3883 11.0516C81.5132 10.5583 81.7095 10.0845 81.9711 9.64396C82.4438 8.87614 83.1947 8.50118 84.1297 8.55878C85.0104 8.61507 85.5863 9.0988 85.9705 9.84615C86.2836 10.4947 86.4668 11.1947 86.5109 11.909C86.5467 12.3569 86.5109 12.8048 86.5109 13.2604C86.5652 14.3033 86.4937 15.3386 86.1584 16.3291Z" fill="#00AA53"/>
<path d="M54.2988 15.1186C54.2658 13.7839 54.2988 12.4466 54.2313 11.1131C54.1888 10.4385 54.0783 9.76949 53.9017 9.11552C53.5322 7.65923 52.5269 6.79928 51.0383 6.45247C50.6967 6.37655 50.3502 6.32226 50.0014 6.28995C47.9275 6.08392 45.8866 6.3808 43.8657 6.65466C43.336 7.52998 42.0791 10.4208 42.0672 10.7919C42.3322 10.664 42.597 10.536 42.862 10.4144C44.2537 9.77458 45.6695 9.1987 47.203 8.95428C47.8996 8.84296 48.6003 8.81608 49.2875 9.00804C49.9748 9.19998 50.5218 9.61206 50.6901 10.312C50.7906 10.7382 50.7497 11.195 50.7761 11.68L50.3549 11.648C49.1486 11.5482 47.946 11.5201 46.7463 11.7287C45.402 11.9718 44.169 12.4389 43.128 13.3257C40.9005 15.2223 41.4249 18.8285 43.9677 20.0032C45.2232 20.6025 46.6686 20.7146 48.0069 20.3168C49.2756 19.9533 50.061 19.078 50.5842 17.9455C50.6635 17.7727 50.6808 17.5616 50.9126 17.4042C51.0609 18.3243 51.1986 19.1868 51.3389 20.0595H54.9346C54.2194 17.8956 54.3531 17.3235 54.2988 15.1186ZM49.9763 16.7579C49.5219 17.5398 48.8929 18.1297 47.9381 18.3089C46.9436 18.4932 46.0416 17.9429 45.8364 16.9806C45.5808 15.7841 45.8932 14.7321 46.8654 13.9272C47.9554 13.0225 49.2492 12.7409 50.7338 12.8305C50.8185 14.2471 50.6755 15.555 49.9763 16.7579Z" fill="#00AA53"/>
<path d="M108.639 6.67779H113.479C113.466 6.7729 113.444 6.86671 113.414 6.95805C112.99 7.92934 112.869 8.9595 112.859 9.99478C112.835 12.2522 112.835 14.51 112.859 16.7682C112.872 17.8778 113.016 18.977 113.521 20.0494H109.874C109.72 18.9489 109.566 17.847 109.411 16.7439L109.329 16.7375C109.295 16.8745 109.262 17.0127 109.226 17.1496C109.133 17.5903 109.015 18.0256 108.871 18.4536C108.367 19.7499 107.344 20.4103 105.942 20.5267C105.045 20.5997 104.155 20.5626 103.301 20.217C102.92 20.0707 102.574 19.8502 102.285 19.5693C101.996 19.2884 101.77 18.9531 101.621 18.5841C101.329 17.8931 101.252 17.1675 101.252 16.4278C101.252 14.5838 101.268 12.7397 101.234 10.897C101.214 9.9947 101.143 9.09416 101.022 8.19936C100.954 7.68747 100.757 7.19224 100.607 6.67651H105.391C105.391 6.73923 105.411 6.78146 105.391 6.8109C104.861 8.05477 104.775 9.37028 104.767 10.6871C104.759 12.1553 104.759 13.6232 104.767 15.0906C104.766 15.3533 104.794 15.6154 104.851 15.8725C105.167 17.2699 106.566 17.8458 107.824 17.0856C108.27 16.8263 108.641 16.4598 108.898 16.0217C109.155 15.5837 109.291 15.0888 109.292 14.5851C109.329 12.7244 109.275 10.8599 109.19 9.00045C109.162 8.37339 108.926 7.75402 108.793 7.1321C108.76 6.99004 108.7 6.85438 108.639 6.67779Z" fill="#00AA53"/>
<path d="M14.6328 6.67651H19.4627C19.3476 6.93945 19.2541 7.21073 19.1832 7.48784C19.0415 8.30174 18.8548 9.11819 18.8283 9.93721C18.7714 11.7045 18.8005 13.4743 18.8018 15.2428C18.8049 15.4496 18.8307 15.6555 18.8786 15.8571C19.1951 17.2648 20.5751 17.8483 21.8424 17.0894C22.2913 16.833 22.6638 16.4686 22.9234 16.0317C23.1831 15.5948 23.3212 15.1004 23.3244 14.5966C23.3627 12.718 23.3151 10.8343 23.2197 8.95694C23.1801 8.20192 22.9192 7.45714 22.7536 6.68419H27.5001C27.5003 6.75334 27.4909 6.82222 27.4722 6.88894C27.0378 7.87687 26.9041 8.92367 26.8935 9.97944C26.8697 12.2368 26.8697 14.4942 26.8935 16.7516C26.9067 17.8624 27.0431 18.9642 27.5556 20.0417H23.8978C23.7456 18.9527 23.592 17.8458 23.4383 16.7401L23.3655 16.7286C23.3285 16.8565 23.2899 16.996 23.2542 17.1317C23.139 17.5668 23.0597 18.0147 22.9019 18.4357C22.4782 19.5772 21.6213 20.2631 20.3857 20.464C19.358 20.6317 18.3317 20.6112 17.3397 20.2222C16.9479 20.0759 16.5926 19.851 16.2975 19.5622C16.0023 19.2735 15.7739 18.9274 15.6274 18.547C15.3766 17.8923 15.2566 17.1975 15.2738 16.4995C15.2738 14.6375 15.2897 12.7743 15.2552 10.9123C15.2382 10.0106 15.1701 9.11051 15.0513 8.21601C14.9824 7.70412 14.7864 7.20761 14.6328 6.67651Z" fill="#00AA53"/>
<path d="M64.9679 25.859L62.4849 22.2758C62.9497 22.3295 63.302 22.3794 63.6568 22.4037C65.7241 22.5805 67.3293 21.8177 68.5489 20.1477C68.031 19.966 67.5238 20.1285 66.9756 20.0197C66.916 19.8649 66.8366 19.6793 66.773 19.4874C65.5979 15.946 64.4258 12.4 63.2569 8.84921C63.0013 8.07116 62.6556 7.34685 61.9922 6.69165H67.3133C67.2393 7.01541 67.1465 7.32125 67.1001 7.6335C67.0039 8.38406 67.0877 9.14595 67.3451 9.86019C68.153 12.2763 68.9656 14.6902 69.7833 17.102C69.8004 17.1545 69.8282 17.2044 69.8853 17.3272C69.9532 17.2119 70.013 17.0922 70.0641 16.9689C70.7818 14.744 71.4973 12.5173 72.2107 10.2889C72.5828 9.1154 72.6756 7.9291 72.2399 6.69293H76.0474C76.0291 6.75292 76.0024 6.8102 75.968 6.86312C75.3812 7.47226 75.0713 8.21575 74.8116 8.99382C73.6912 12.3577 72.5643 15.7199 71.4307 19.0804C70.9637 20.5205 70.2609 21.8789 69.3489 23.1038C68.3609 24.3975 67.1267 25.3625 65.4832 25.7695C65.3201 25.8104 65.1494 25.8284 64.9679 25.859Z" fill="#00AA53"/>
<path d="M12.4017 9.03987C12.149 8.47574 11.7747 7.97016 11.3038 7.55685C10.8329 7.14353 10.2763 6.83199 9.6709 6.64299C9.06207 6.44807 8.43267 6.31931 7.79433 6.25907C4.76954 5.97114 2.07981 7.41081 1.04021 10.2761C0.263737 12.3736 0.31086 14.6736 1.17264 16.7398C1.44441 17.4504 1.86309 18.1001 2.40316 18.6492C2.94324 19.1984 3.59338 19.6355 4.31396 19.934C5.66463 20.4988 7.15311 20.6829 8.60747 20.465C10.8588 20.1592 12.4149 18.6351 12.799 16.3841C12.6546 16.489 12.5434 16.5824 12.4189 16.6567C11.86 16.9945 11.3316 17.4181 10.7264 17.642C9.28155 18.1757 7.81287 18.2102 6.47529 17.331C5.241 16.5223 4.7841 15.2835 4.52586 13.8579H12.8851C13.0745 12.1764 13.1274 10.573 12.4017 9.03987ZM4.41991 12.5565C4.36826 11.3523 4.50334 10.2415 5.13373 9.24079C5.65552 8.41409 6.42761 8.00075 7.44072 8.11465C8.27638 8.20934 8.87631 8.67772 9.27889 9.36747C9.84836 10.3413 10.0165 11.415 10.0364 12.5565H4.41991Z" fill="#00AA53"/>
<path d="M125.047 6.66733C125.275 7.70389 125.5 8.72764 125.757 9.89856C125.483 9.73092 125.319 9.62728 125.152 9.52745C123.683 8.61982 121.981 8.12696 120.237 8.10444C119.907 8.09987 119.578 8.14696 119.263 8.24391C118.363 8.5344 118.122 9.49034 118.804 10.134C119.134 10.4263 119.51 10.6641 119.92 10.8379C120.641 11.1642 121.404 11.4048 122.127 11.7337C122.971 12.1176 123.83 12.4861 124.613 12.9686C125.992 13.8196 126.637 15.0698 126.467 16.6669C126.28 18.3728 125.32 19.4989 123.67 20.094C122.843 20.3805 121.972 20.529 121.094 20.5329C119.554 20.5462 118.015 20.4314 116.495 20.1899C116.23 20.1515 116.029 20.0991 115.95 19.7868C115.658 18.6172 115.332 17.4565 115.023 16.2907C115.025 16.2285 115.034 16.1666 115.05 16.1064L115.663 16.5338C116.607 17.2031 117.583 17.8199 118.683 18.2333C119.526 18.5506 120.392 18.7707 121.302 18.7042C121.71 18.6818 122.11 18.5922 122.486 18.4393C123.492 18.0055 123.629 16.9126 122.76 16.2638C122.417 16.0173 122.04 15.8171 121.641 15.6687C120.723 15.3053 119.771 15.0187 118.868 14.6258C118.152 14.3322 117.473 13.9609 116.844 13.5189C115.351 12.4196 114.89 10.9006 115.189 9.15251C115.333 8.31302 115.831 7.67445 116.569 7.20863C117.426 6.66861 118.39 6.44081 119.384 6.34996C121.269 6.1644 123.146 6.32436 125.047 6.66733Z" fill="#00AA53"/>
<path d="M38.2636 11.415C38.1929 11.0684 38.0997 10.7264 37.9841 10.3913C37.7921 9.92416 37.6027 9.43532 37.3034 9.03093C36.2995 7.67317 34.2692 7.80241 33.4019 9.24847C33.0956 9.77567 32.9113 10.3607 32.8615 10.9633C32.7436 12.147 32.7398 13.332 33.0669 14.4927C33.1816 14.9101 33.3355 15.3166 33.5264 15.7071C34.8096 18.2755 37.8066 18.5545 39.7507 17.166C40.062 16.9446 40.3507 16.6938 40.7095 16.4097C40.7037 16.5385 40.6891 16.6667 40.6659 16.7936C40.0501 19.0971 38.2755 20.4574 35.8017 20.5214C34.9241 20.561 34.0464 20.4487 33.2099 20.1899C31.4591 19.6179 30.2394 18.4854 29.5574 16.8486C28.6893 14.829 28.5994 12.5756 29.3044 10.4975C30.1481 7.95854 32.018 6.58926 34.7341 6.2834C36.2888 6.10809 37.8079 6.25399 39.2475 6.88103C39.6608 7.08506 40.0631 7.30929 40.4526 7.55287C39.7415 8.87736 39.0568 10.152 38.3708 11.4265L38.2636 11.415Z" fill="#00AA53"/>
<path d="M56.502 0.929064L60.9173 0V0.717919C60.9173 5.62686 60.9054 10.5371 60.9279 15.4447C60.9413 16.4777 61.0111 17.5093 61.1371 18.5352C61.1927 19.0304 61.394 19.5116 61.5343 19.9979C61.1305 20.0977 57.756 20.1348 56.7244 20.0414C56.8316 19.7369 56.9483 19.4412 57.0383 19.1392C57.2814 18.2467 57.3959 17.326 57.3786 16.4032C57.3972 12.6605 57.3997 8.91739 57.3865 5.17383C57.3865 3.79176 57.1747 2.43911 56.5641 1.16709C56.5371 1.08943 56.5162 1.00985 56.502 0.929064Z" fill="#00AA53"/>
<path d="M91.9473 6.55605L96.4037 3.07397V6.63283C97.3757 6.67378 98.3015 6.63283 99.2616 6.66097V8.24653H96.4977C96.4673 8.38795 96.4464 8.53116 96.4354 8.67523C96.4354 11.2167 96.4354 13.7574 96.4354 16.2971C96.4284 16.5228 96.4552 16.7482 96.515 16.9664C96.8023 17.8993 97.9095 18.1501 98.5927 17.4335C98.7708 17.2156 98.9294 16.9836 99.0669 16.7399C99.228 17.1418 99.29 17.5744 99.2478 18.0034C99.2057 18.4324 99.0605 18.846 98.8238 19.2114C98.5874 19.5767 98.266 19.8837 97.885 20.108C97.5043 20.3323 97.0745 20.4677 96.6301 20.5035C96.243 20.5458 95.8516 20.5394 95.4661 20.4843C94.0358 20.2591 93.167 19.3006 92.967 17.747C92.9116 17.2986 92.8846 16.8473 92.8863 16.3957C92.8782 14.1191 92.8863 11.8412 92.8863 9.56462C92.8863 9.3765 92.8863 9.18838 92.8863 9.00028C92.8506 7.87286 92.706 7.48511 91.9473 6.55605Z" fill="#00AA53"/>
</g>
</g>
<defs>
<clipPath id="clip0_876_1930">
<rect width="126" height="26" fill="white" transform="translate(0.488281)"/>
</clipPath>
</defs>
</svg>
