<svg width="91" height="26" viewBox="0 0 91 26" fill="none" xmlns="http://www.w3.org/2000/svg">
<g clip-path="url(#clip0_876_1945)">
<path d="M19.1457 0.651481L15.1797 0L15.5342 2.19668L19.1457 0.651481Z" fill="#1B315E"/>
<path d="M20.6765 4.03353L18.6454 5.01367L11.3828 3.97334L19.1455 0.651367L20.6765 4.03353Z" fill="#0E8BCA"/>
<path d="M11.3831 3.9729L21.2929 5.39237L14.2224 8.96289L10.8711 8.76434L11.3831 3.9729Z" fill="#1B315E"/>
<path d="M23.1492 9.49103L19.9855 11.3125L10.6582 10.7634L21.2933 5.39233L23.1492 9.49103Z" fill="#0E8BCA"/>
<path d="M10.6588 10.7634L24.0834 11.5523L15.4449 16.8418L9.98438 17.068L10.6588 10.7634Z" fill="#1B315E"/>
<path d="M26.2746 16.3954L24.083 11.5525L0.488281 26.0001L14.6974 24.5316L26.2746 16.3954Z" fill="#0E8BCA"/>
<path d="M33.4272 5.78863C33.1591 5.78863 32.9123 5.83815 32.6857 5.93864C32.4595 6.03816 32.2719 6.16583 32.1243 6.31923L32.1248 11.5529H30.0586L30.0591 1.60498H32.1248L32.1243 4.95656C32.347 4.77597 32.6146 4.62548 32.9296 4.50752C33.2426 4.38907 33.5941 4.33081 33.9822 4.33081C34.9059 4.33081 35.6247 4.60995 36.1367 5.16871C36.6497 5.72698 36.9064 6.55614 36.9059 7.65521L36.9064 11.5529H34.8412L34.8407 7.68239C34.8412 7.01052 34.7237 6.52652 34.4882 6.23234C34.2517 5.9367 33.8982 5.78863 33.4272 5.78863Z" fill="#1B315E"/>
<path d="M38.3164 2.62686C38.3164 2.29044 38.4068 2.03606 38.5865 1.86421C38.7672 1.69139 39.0688 1.60498 39.4939 1.60498C39.9195 1.60498 40.2217 1.69139 40.4014 1.86421C40.5821 2.03606 40.6729 2.29044 40.6719 2.62686C40.6724 2.97299 40.5821 3.22931 40.4014 3.3968C40.2217 3.56428 39.919 3.64875 39.4944 3.64875C39.0698 3.64875 38.7667 3.56428 38.5865 3.3968C38.4063 3.22931 38.3164 2.97299 38.3164 2.62686ZM38.4546 4.49344H40.5194L40.5199 11.5529H38.4537L38.4546 4.49344Z" fill="#1B315E"/>
<path d="M41.748 7.94114C41.749 7.38772 41.8315 6.8877 41.9974 6.44254C42.1642 5.99786 42.3933 5.61775 42.6836 5.30463C42.9749 4.99152 43.3121 4.74976 43.6967 4.58325C44.0779 4.41382 44.4931 4.33081 44.937 4.33081C45.3053 4.33081 45.6459 4.38712 45.9545 4.50072C46.2641 4.61432 46.5164 4.76675 46.7099 4.95656L46.7109 4.49295H48.7756L48.7761 10.8859C48.7751 11.4859 48.7065 11.9971 48.5682 12.4253C48.4285 12.8515 48.2103 13.202 47.9096 13.4739C47.6099 13.7472 47.2204 13.9491 46.7459 14.0807C46.2695 14.2132 45.6938 14.2797 45.0204 14.2797C44.5494 14.2797 44.1001 14.2365 43.6755 14.1559C43.2509 14.0744 42.8584 13.9414 42.4975 13.7603L42.6076 12.1661C42.932 12.3937 43.2899 12.5661 43.6829 12.6836C44.0754 12.802 44.4748 12.8607 44.8812 12.8607C45.4361 12.8607 45.8785 12.735 46.2117 12.486C46.545 12.2369 46.7114 11.8209 46.7104 11.2393L46.7109 10.9262C46.5169 11.1175 46.2646 11.2684 45.955 11.3816C45.6459 11.4961 45.3068 11.5524 44.937 11.5524C44.4936 11.5524 44.0799 11.4685 43.6963 11.3015C43.3131 11.1325 42.9764 10.8922 42.6851 10.5776C42.3933 10.2655 42.1643 9.88587 41.9979 9.44071C41.8315 8.99603 41.748 8.49601 41.748 7.94114ZM43.8409 7.94114C43.8409 8.66835 43.9915 9.20818 44.2912 9.56304C44.5914 9.91743 44.9592 10.0951 45.3927 10.0951C45.6514 10.0951 45.8967 10.0495 46.1283 9.95821C46.3598 9.8684 46.5524 9.73587 46.7099 9.56304L46.7104 6.31923C46.5529 6.15661 46.3589 6.02651 46.1278 5.93136C45.8967 5.83572 45.6509 5.78815 45.3932 5.78815C44.9587 5.78815 44.5914 5.96582 44.2917 6.31923C43.991 6.67507 43.8404 7.2149 43.8409 7.94114Z" fill="#1B315E"/>
<path d="M53.7495 5.78863C53.4814 5.78863 53.234 5.83815 53.0084 5.93864C52.7808 6.03816 52.5937 6.16583 52.4461 6.31923L52.4466 11.5529H50.3814L50.3809 1.60498H52.4471L52.4461 4.95656C52.6678 4.77597 52.9353 4.62548 53.2503 4.50752C53.5638 4.38907 53.9154 4.33081 54.3034 4.33081C55.2282 4.33081 55.946 4.60995 56.4595 5.16871C56.971 5.72698 57.2277 6.55614 57.2277 7.65521L57.2282 11.5529H55.1625L55.1635 7.68239C55.1635 7.01052 55.045 6.52652 54.8105 6.23234C54.5745 5.9367 54.22 5.78863 53.7495 5.78863Z" fill="#1B315E"/>
<path d="M64.3846 4.49341L65.6876 9.18145L67.0171 4.49341H69.1243L66.7816 11.5529H64.6749L63.455 7.01535L62.2355 11.5529H60.1303L57.7871 4.49341H59.8928L61.2239 9.18145L62.5253 4.49341H64.3846Z" fill="#1B315E"/>
<path d="M72.064 11.716C71.6937 11.716 71.3471 11.667 71.0247 11.5665C70.7008 11.4665 70.4189 11.3209 70.1795 11.1301C69.9395 10.9393 69.7499 10.7034 69.6107 10.4218C69.472 10.1403 69.4028 9.81742 69.4043 9.4543C69.4028 8.71884 69.6852 8.13047 70.2481 7.68967C70.8119 7.24888 71.6349 7.02848 72.7157 7.02848H74.0462L74.0457 6.70469C74.0453 6.36341 73.9431 6.12505 73.7337 5.99058C73.5254 5.85563 73.1724 5.78863 72.6742 5.78863C72.2308 5.78863 71.7959 5.84397 71.3713 5.95466C70.9457 6.0668 70.5586 6.21535 70.2066 6.40128L70.0126 4.95656C70.373 4.77646 70.8099 4.62548 71.3224 4.508C71.8344 4.38907 72.3548 4.33081 72.8821 4.33081C73.9988 4.33081 74.8174 4.53713 75.3343 4.94928C75.8518 5.36386 76.1105 6.05709 76.1105 7.02848L76.1115 11.5529H74.0457V11.0893C73.7401 11.3165 73.4424 11.4791 73.1511 11.5733C72.8608 11.6685 72.4979 11.716 72.064 11.716ZM72.5626 10.3126C72.8485 10.3126 73.126 10.266 73.3945 10.1699C73.6621 10.0742 73.8789 9.92665 74.0448 9.72616L74.0452 8.41834H72.7833C72.3123 8.41834 71.98 8.50718 71.7865 8.68437C71.591 8.86205 71.4942 9.10575 71.4942 9.41304C71.4952 9.72276 71.589 9.9485 71.7791 10.0956C71.9687 10.2398 72.2304 10.3126 72.5626 10.3126Z" fill="#1B315E"/>
<path d="M79.5103 11.5398L76.627 4.49341H78.7894L80.4932 9.18145L82.1857 4.49341H84.3472L80.6739 14.1831H78.5115L79.5103 11.5398Z" fill="#1B315E"/>
<path d="M87.467 11.716C86.9762 11.716 86.5057 11.6709 86.0534 11.5801C85.6002 11.4888 85.1801 11.3481 84.791 11.1578L84.8888 9.52275C85.2393 9.75965 85.617 9.94073 86.0184 10.0674C86.4198 10.1956 86.8384 10.2592 87.2724 10.2592C88.0209 10.2592 88.3956 10.0223 88.3946 9.54994C88.3946 9.44945 88.3729 9.35818 88.3324 9.27711C88.2905 9.19556 88.2154 9.11594 88.1034 9.03924C87.9938 8.96302 87.8446 8.88681 87.6605 8.8135C87.4753 8.74117 87.2448 8.66495 86.9673 8.58291C86.2183 8.37319 85.6743 8.08435 85.3326 7.71686C84.99 7.34888 84.8192 6.91489 84.8197 6.41584C84.8192 5.73426 85.0709 5.21677 85.5745 4.86238C86.0786 4.508 86.8049 4.33081 87.7573 4.33081C88.1917 4.33081 88.6104 4.37159 89.0113 4.45315C89.4137 4.53519 89.7899 4.6483 90.1409 4.79345L89.9889 6.29253C89.6916 6.13816 89.3697 6.01583 89.0187 5.92504C88.6672 5.83524 88.3112 5.78863 87.9508 5.78863C87.5721 5.78863 87.3035 5.83863 87.1475 5.93912C86.99 6.03816 86.9115 6.16923 86.9115 6.33428C86.9115 6.53381 87.0038 6.70663 87.1885 6.85178C87.3736 6.99742 87.7336 7.14694 88.2702 7.29985C88.6943 7.4285 89.0473 7.5688 89.3297 7.72366C89.6122 7.87852 89.8388 8.046 90.0096 8.22756C90.1814 8.40912 90.3029 8.60524 90.3759 8.8135C90.45 9.02322 90.487 9.24119 90.488 9.4679C90.487 10.1956 90.2367 10.7505 89.7326 11.1374C89.2285 11.5233 88.4736 11.716 87.467 11.716Z" fill="#1B315E"/>
<path d="M30.9055 19.6541C30.945 20.2367 31.1479 20.7017 31.5118 21.0517C31.8752 21.4008 32.3689 21.576 32.9929 21.576C33.3608 21.576 33.6985 21.5353 34.0065 21.4522C34.3141 21.3707 34.6039 21.2187 34.8755 20.9983L34.9841 21.9537C34.7279 22.1105 34.4302 22.2319 34.0905 22.3197C33.7503 22.4057 33.3776 22.4484 32.9692 22.4484C32.4583 22.4484 32.008 22.3664 31.6199 22.2013C31.2328 22.0362 30.9085 21.81 30.6488 21.5231C30.3891 21.2357 30.1926 20.8983 30.0613 20.5085C29.9289 20.1197 29.8633 19.6978 29.8633 19.241C29.8633 18.7628 29.9294 18.3278 30.0613 17.939C30.1931 17.5497 30.3812 17.2157 30.6251 16.937C30.8685 16.6579 31.1652 16.4419 31.5128 16.2875C31.8604 16.1341 32.246 16.0579 32.6705 16.0579C33.1179 16.0579 33.5178 16.136 33.8693 16.2938C34.2213 16.4501 34.5175 16.672 34.757 16.9598C34.9964 17.2467 35.1786 17.5885 35.303 17.9861C35.427 18.3832 35.4892 18.8167 35.4892 19.2886V19.4711C35.4892 19.5298 35.4847 19.5915 35.4768 19.6541H30.9055ZM34.444 18.8051C34.4035 18.2312 34.2292 17.7759 33.9221 17.4375C33.6145 17.1006 33.1969 16.9302 32.6691 16.9302C32.1413 16.9302 31.7256 17.1006 31.421 17.4375C31.1173 17.7759 30.945 18.2317 30.9055 18.8051H34.444Z" fill="#1B315E"/>
<path d="M39.3184 16.9302C38.9594 16.9302 38.6365 17.0016 38.3527 17.1414C38.0698 17.2846 37.8392 17.4696 37.6634 17.6963V22.3071H36.6562V16.1991H37.6634V16.6943C37.8713 16.5059 38.126 16.3521 38.4252 16.2346C38.7244 16.1171 39.0671 16.0583 39.4507 16.0583C40.2495 16.0583 40.8795 16.2923 41.3391 16.7598C41.7988 17.2273 42.0284 17.9259 42.0284 18.8531V22.3076H41.0217V18.8288C41.0217 18.1613 40.8795 17.6788 40.5951 17.3788C40.3122 17.0793 39.8866 16.9302 39.3184 16.9302Z" fill="#1B315E"/>
<path d="M47.7672 16.1993H48.7744V21.8607C48.7744 22.8505 48.5414 23.5656 48.0783 24.0064C47.6152 24.4462 46.8874 24.6661 45.8956 24.6661C45.1125 24.6661 44.4164 24.505 43.8091 24.1826L43.8812 23.169C44.1932 23.3729 44.5181 23.5277 44.8583 23.6345C45.1979 23.7408 45.5598 23.7933 45.943 23.7933C46.5675 23.7933 47.0262 23.6612 47.3229 23.3986C47.6191 23.135 47.7667 22.6694 47.7667 22V21.6937C47.5584 21.8908 47.3066 22.0456 47.0104 22.1602C46.7151 22.2743 46.3838 22.3311 46.0155 22.3311C45.6314 22.3311 45.2675 22.2578 44.9244 22.1131C44.5803 21.967 44.2786 21.7597 44.0189 21.4883C43.7587 21.2165 43.5548 20.8869 43.4072 20.497C43.2596 20.1087 43.1855 19.6703 43.1855 19.1824C43.1855 18.695 43.2596 18.2596 43.4072 17.8727C43.5548 17.4896 43.7587 17.16 44.0189 16.8886C44.2786 16.6182 44.5803 16.409 44.9244 16.2639C45.2675 16.1187 45.6314 16.0459 46.0155 16.0459C46.3838 16.0459 46.7151 16.1012 47.0109 16.211C47.3076 16.3221 47.5589 16.4746 47.7672 16.6707V16.1993ZM47.7672 17.6843C47.5826 17.4324 47.3495 17.2421 47.0652 17.1134C46.7818 16.9828 46.4589 16.9187 46.0995 16.9187C45.8363 16.9187 45.588 16.9683 45.3559 17.0668C45.1249 17.1644 44.9244 17.3076 44.7566 17.4964C44.5882 17.6848 44.4564 17.9207 44.3606 18.2042C44.2643 18.4868 44.2169 18.8135 44.2169 19.1829C44.2169 19.5533 44.2643 19.8786 44.3606 20.1621C44.4559 20.4456 44.5882 20.6825 44.7566 20.8757C44.9244 21.0684 45.1249 21.2136 45.3559 21.3111C45.588 21.4097 45.8363 21.4592 46.0995 21.4592C46.4594 21.4592 46.7818 21.3917 47.0652 21.2582C47.3495 21.1257 47.5826 20.932 47.7672 20.681V17.6843Z" fill="#1B315E"/>
<path d="M51.388 13.6978H50.3809V22.3068H51.388V13.6978Z" fill="#1B315E"/>
<path d="M54.9239 22.4484C54.5807 22.4484 54.2623 22.4076 53.971 22.3251C53.6782 22.243 53.4249 22.1207 53.2087 21.9595C52.9924 21.7984 52.8256 21.5974 52.7061 21.3581C52.5856 21.1182 52.5254 20.8377 52.5254 20.5153C52.5254 19.8939 52.7609 19.4002 53.2329 19.0352C53.7039 18.6701 54.3768 18.4871 55.2477 18.4871H56.8074V18.0633C56.8074 17.6375 56.6805 17.3429 56.4292 17.1778C56.1769 17.0128 55.7716 16.9302 55.2112 16.9302C54.876 16.9302 54.5235 16.971 54.1556 17.0555C53.7878 17.137 53.46 17.2564 53.1731 17.4137L53.065 16.5292C53.3603 16.388 53.698 16.2749 54.0781 16.187C54.4583 16.1006 54.8429 16.0579 55.2369 16.0579C55.6521 16.0579 56.0189 16.0967 56.3393 16.1753C56.6588 16.2535 56.9284 16.3821 57.1485 16.5589C57.3687 16.736 57.5341 16.9676 57.6462 17.2545C57.7588 17.5419 57.8146 17.8929 57.8146 18.3109V22.3076H56.8074V21.8348C56.5911 22.0411 56.3211 22.194 55.9987 22.2964C55.6738 22.3969 55.3154 22.4484 54.9239 22.4484ZM55.0201 21.576C55.4043 21.576 55.7538 21.5134 56.0693 21.3872C56.3853 21.2619 56.6311 21.0736 56.8074 20.8211V19.3361H55.2956C54.6958 19.3361 54.2564 19.4395 53.9759 19.6483C53.697 19.857 53.5563 20.1376 53.5563 20.491C53.5563 20.8682 53.692 21.1435 53.9641 21.3168C54.2361 21.4901 54.5886 21.576 55.0201 21.576Z" fill="#1B315E"/>
<path d="M61.9683 16.9302C61.6088 16.9302 61.2869 17.0016 61.0035 17.1414C60.7192 17.2846 60.4901 17.4696 60.3138 17.6963V22.3071H59.3066V16.1991H60.3138V16.6943C60.5222 16.5059 60.7764 16.3521 61.0751 16.2346C61.3753 16.1171 61.717 16.0583 62.1006 16.0583C62.9004 16.0583 63.5304 16.2923 63.9895 16.7598C64.4487 17.2273 64.6788 17.9259 64.6788 18.8531V22.3076H63.6716V18.8288C63.6716 18.1613 63.5299 17.6788 63.246 17.3788C62.9621 17.0793 62.5355 16.9302 61.9683 16.9302Z" fill="#1B315E"/>
<path d="M70.4343 21.835C70.2259 22.0248 69.9726 22.1733 69.673 22.2835C69.3733 22.3942 69.0464 22.4486 68.6959 22.4486C68.2866 22.4486 67.9079 22.3772 67.5564 22.2311C67.2034 22.0855 66.8978 21.8733 66.6386 21.5942C66.3784 21.3155 66.174 20.9786 66.0264 20.5864C65.8792 20.1922 65.8047 19.749 65.8047 19.2533C65.8047 18.7577 65.8792 18.3144 66.0264 17.9207C66.174 17.5275 66.3784 17.1926 66.6386 16.9124C66.8978 16.6338 67.2039 16.4212 67.5564 16.276C67.9079 16.1299 68.2866 16.058 68.6959 16.058C69.0469 16.058 69.3733 16.1129 69.673 16.2236C69.9726 16.3333 70.2259 16.4828 70.4343 16.6707V13.6987H71.4414V22.3073H70.4343V21.835ZM70.4343 17.6843C70.2501 17.4416 70.0141 17.2542 69.7263 17.1246C69.4384 16.995 69.1264 16.9309 68.7902 16.9309C68.5112 16.9309 68.2511 16.9809 68.0121 17.078C67.7722 17.176 67.5638 17.3251 67.387 17.5197C67.2118 17.7164 67.0755 17.9581 66.9797 18.245C66.884 18.5329 66.8366 18.8693 66.8366 19.2533C66.8366 19.6392 66.884 19.9766 66.9797 20.2674C67.0755 20.5587 67.2118 20.8 67.387 20.9932C67.5633 21.1854 67.7717 21.3306 68.0121 21.4291C68.2511 21.5272 68.5112 21.5762 68.7902 21.5762C69.1269 21.5762 69.4384 21.5116 69.7263 21.382C70.0141 21.2524 70.2501 21.0655 70.4343 20.8218V17.6843Z" fill="#1B315E"/>
</g>
<defs>
<clipPath id="clip0_876_1945">
<rect width="90" height="26" fill="white" transform="translate(0.488281)"/>
</clipPath>
</defs>
</svg>
